<svg width="55" height="44" viewBox="0 0 55 44" fill="none" xmlns="http://www.w3.org/2000/svg">
<path d="M41.9154 36.546H12.829C5.75506 36.546 0 31.6772 0 25.6926V10.8552C0 4.86965 5.75609 0 12.8312 0H41.9154C48.9905 0 54.7466 4.86965 54.7466 10.8552V25.6907C54.7466 31.6763 48.9905 36.546 41.9154 36.546ZM12.8312 3.6184C8.11443 3.6184 4.27707 6.86481 4.27707 10.8552V25.6926C4.27707 29.6819 8.11351 32.9275 12.829 32.9275H41.9153C46.6321 32.9275 50.4694 29.6811 50.4694 25.6907V10.8552C50.4694 6.86481 46.6321 3.6184 41.9153 3.6184H12.8312ZM39.7768 41.9735C39.7768 40.9743 38.8193 40.1643 37.6382 40.1643H17.1083C15.9272 40.1643 14.9697 40.9743 14.9697 41.9735C14.9697 42.9728 15.9272 43.7828 17.1083 43.7828H37.6383C38.8194 43.7828 39.7768 42.9728 39.7768 41.9735ZM20.1023 23.3388C18.9212 23.3388 17.9637 22.5288 17.9637 21.5295V16.4637C17.9637 13.4709 20.8418 11.0361 24.3794 11.0361H30.4742C31.6553 11.0361 32.6128 11.8461 32.6128 12.8453C32.6128 13.8446 31.6553 14.6546 30.4742 14.6546H24.3794C23.2002 14.6546 22.2408 15.4662 22.2408 16.4638V21.5296C22.2408 22.5288 21.2834 23.3388 20.1023 23.3388ZM36.0497 26.4273C36.8849 25.7207 36.8849 24.5751 36.0497 23.8686L28.9925 17.8982C28.1573 17.1916 26.8032 17.1916 25.968 17.8982C25.1329 18.6048 25.1328 19.7503 25.968 20.4567L33.0252 26.4271C33.4428 26.7805 33.9902 26.957 34.5373 26.957C35.0846 26.9572 35.632 26.7806 36.0497 26.4273Z" fill="white"/>
</svg>
