<svg width="55" height="45" viewBox="0 0 55 45" fill="none" xmlns="http://www.w3.org/2000/svg">
<path d="M27.3731 28.5909C24.8902 28.591 22.4082 28.0774 20.1448 27.0504L3.82438 19.6444C1.45778 18.5706 -0.00736588 16.4939 0.000324894 14.2249C0.00811821 11.9559 1.48752 9.88655 3.8614 8.82419L20.223 1.50259C24.7002 -0.500862 30.046 -0.500862 34.5233 1.50259L50.8848 8.82419C53.2587 9.88647 54.7381 11.9558 54.7459 14.2249C54.7536 16.4939 53.2885 18.5706 50.922 19.6444L34.6013 27.0504C32.3387 28.0774 29.8555 28.5907 27.3731 28.5909ZM27.3731 3.61873C25.6041 3.61873 23.8353 3.97953 22.2228 4.70113L5.86141 12.0228C4.87289 12.4652 4.2807 13.2924 4.27752 14.2355C4.27434 15.1786 4.86069 16.0087 5.84624 16.4559L22.1668 23.8619C25.4272 25.3413 29.3197 25.3413 32.58 23.8619L48.9006 16.4559C49.8862 16.0087 50.4725 15.1787 50.4693 14.2355C50.4662 13.2923 49.874 12.4652 48.8855 12.0228L32.5235 4.70113C30.911 3.97961 29.1421 3.61873 27.3731 3.61873ZM21.223 3.10186H21.224H21.223ZM34.6014 43.4235L53.6184 34.7942C54.6592 34.322 55.0504 33.2252 54.4921 32.3448C53.9339 31.4643 52.6376 31.1333 51.5968 31.6056L32.5798 40.2348C29.3197 41.7143 25.4271 41.7143 22.1584 40.2311L3.14144 31.6923C2.09796 31.2239 0.803549 31.5597 0.250019 32.4422C-0.303717 33.3248 0.093127 34.4199 1.13641 34.8884L20.1449 43.4234C22.4083 44.4504 24.8903 44.9638 27.3732 44.9638C29.8555 44.9639 32.3387 44.4503 34.6014 43.4235ZM34.6014 35.2822L53.6184 26.653C54.6592 26.1807 55.0504 25.084 54.4921 24.2036C53.9339 23.3229 52.6376 22.9922 51.5968 23.4644L32.5798 32.0936C29.3197 33.5731 25.4271 33.5729 22.1584 32.0898L3.14144 23.5511C2.09796 23.0826 0.803549 23.4185 0.250019 24.301C-0.303717 25.1836 0.093127 26.2787 1.13641 26.7471L20.1449 35.2821C22.4083 36.3092 24.8903 36.8226 27.3732 36.8226C29.8555 36.8226 32.3387 36.3091 34.6014 35.2822Z" fill="white"/>
</svg>
