<svg width="55" height="46" viewBox="0 0 55 46" fill="none" xmlns="http://www.w3.org/2000/svg">
<path d="M46.9409 45.3088C44.856 45.3088 42.8958 44.6368 41.4215 43.4166L35.0619 38.1533C32.8952 36.3602 31.4327 34.098 30.832 31.6114L29.621 26.597C29.4808 26.0168 29.7004 25.417 30.206 24.9986C30.7116 24.5802 31.4367 24.3988 32.1374 24.5145L38.1963 25.5168C41.201 26.0139 43.9342 27.2243 46.101 29.0175L52.4607 34.2808C53.9349 35.5008 54.7467 37.123 54.7467 38.8486C54.7467 40.5741 53.9349 42.1963 52.4604 43.4165C50.986 44.6368 49.0258 45.3088 46.9409 45.3088ZM34.4436 28.5058L35.0261 30.9175C35.4606 32.7165 36.5187 34.353 38.0862 35.6502L44.4459 40.9136C45.1123 41.4651 45.9985 41.7689 46.9409 41.7689C47.8834 41.7689 48.7696 41.4651 49.4361 40.9136C50.1024 40.3621 50.4695 39.6287 50.4695 38.8487C50.4695 38.0686 50.1024 37.3352 49.4361 36.7837L43.0763 31.5204C41.5089 30.2232 39.5315 29.3475 37.3579 28.9878L34.4436 28.5058ZM33.306 43.2943C34.1468 42.6078 34.1558 41.4872 33.3262 40.7914C32.4967 40.0956 31.1425 40.0879 30.302 40.7746C29.5168 41.4159 28.4767 41.769 27.3734 41.769C25.0739 41.769 23.2033 40.2209 23.2033 38.3178V17.6103C23.2033 13.7554 19.4139 10.6193 14.7561 10.6193H8.55415C6.1958 10.6193 4.27707 9.03135 4.27707 7.07957C4.27707 5.12779 6.1958 3.53974 8.55415 3.53974H46.1925C48.5508 3.53974 50.4695 5.1277 50.4695 7.07948C50.4695 9.03127 48.5508 10.6192 46.1925 10.6192H39.9907C35.3329 10.6192 31.5435 13.7553 31.5435 17.6102V19.5571C31.5435 20.5346 32.501 21.327 33.6821 21.327C34.8632 21.327 35.8207 20.5346 35.8207 19.5571V17.6102C35.8207 15.7071 37.6913 14.159 39.9908 14.159H46.1926C50.9094 14.159 54.7467 10.9831 54.7467 7.07948C54.7467 3.17583 50.9093 0 46.1925 0H8.55415C3.83736 0 0 3.17583 0 7.07948C0 10.9831 3.83736 14.159 8.55415 14.159H14.7559C17.0554 14.159 18.926 15.7071 18.926 17.6102V38.3177C18.926 42.1726 22.7154 45.3087 27.3732 45.3087C29.6083 45.3088 31.7152 44.5933 33.306 43.2943Z" fill="white"/>
</svg>
