<svg width="53" height="43" viewBox="0 0 53 43" fill="none" xmlns="http://www.w3.org/2000/svg">
<path d="M38.183 34.2188C37.0462 34.2188 36.1246 33.4696 36.1246 32.5455V18.4899C36.1246 17.5657 37.0462 16.8166 38.183 16.8166C39.3199 16.8166 40.2414 17.5657 40.2414 18.4899V32.5455C40.2414 33.4696 39.3199 34.2188 38.183 34.2188ZM42.6417 39.925L49.041 34.7659C51.363 32.894 52.6947 30.2957 52.6947 27.6374V10.0397C52.6947 4.50382 47.1543 0 40.3444 0H18.7497C15.4703 0 12.3816 1.03384 10.0531 2.91121L3.65366 8.07033C1.33169 9.94216 0 12.5405 0 15.1989V32.7965C0 38.3324 5.54035 42.8362 12.3503 42.8362H33.9449C37.2246 42.8362 40.3131 41.8024 42.6417 39.925ZM40.3444 3.34658C44.8844 3.34658 48.5779 6.3491 48.5779 10.0397V27.6373C48.5779 29.4096 47.6901 31.1418 46.1421 32.3897L39.7428 37.5489C38.1904 38.8004 36.1314 39.4897 33.9449 39.4897H12.3503C7.8103 39.4897 4.11677 36.4871 4.11677 32.7965V15.1989C4.11677 13.4267 5.00459 11.6944 6.55254 10.4465L12.9519 5.28733C14.5043 4.03581 16.5633 3.34658 18.7497 3.34658H40.3444ZM42.7677 10.4179L43.6333 9.73226C44.4476 9.0874 44.4645 8.02796 43.6712 7.3661C42.878 6.70415 41.5746 6.69034 40.7605 7.33528L39.8948 8.0209C38.2513 9.32282 36.0823 10.0397 33.7877 10.0397H13.2766C12.1398 10.0397 11.2182 10.7889 11.2182 11.7131C11.2182 12.6372 12.1398 13.3864 13.2766 13.3864H33.7876C37.1617 13.3863 40.3509 12.3321 42.7677 10.4179Z" fill="white"/>
</svg>
