<svg width="19" height="15" viewBox="0 0 19 15" fill="none" xmlns="http://www.w3.org/2000/svg">
<path d="M15.9199 1.25119C18.0405 4.47965 19.0878 8.12128 18.6963 12.3136C18.6947 12.3314 18.6857 12.3476 18.6716 12.3583C17.0657 13.5793 15.5098 14.3203 13.9757 14.8118C13.9638 14.8155 13.951 14.8153 13.9392 14.8112C13.9273 14.807 13.9171 14.7992 13.9098 14.7887C13.5554 14.2781 13.2333 13.7397 12.9512 13.1744C12.935 13.1411 12.9498 13.101 12.9831 13.0879C13.4946 12.8884 13.9809 12.6492 14.4487 12.3661C14.4855 12.3437 14.4879 12.2891 14.4538 12.2628C14.3546 12.1865 14.2562 12.1063 14.1621 12.0261C14.1445 12.0113 14.1208 12.0084 14.1008 12.0183C11.0639 13.4705 7.73704 13.4705 4.66416 12.0183C4.64421 12.0091 4.62051 12.0122 4.60337 12.0268C4.50949 12.107 4.41091 12.1865 4.31256 12.2628C4.27853 12.2891 4.28134 12.3437 4.31843 12.3661C4.78621 12.6439 5.27254 12.8884 5.78328 13.0889C5.81637 13.102 5.8321 13.1411 5.81567 13.1744C5.53965 13.7405 5.21762 14.2788 4.85663 14.7894C4.8409 14.8101 4.81508 14.8195 4.79067 14.8118C3.26386 14.3203 1.70794 13.5793 0.102031 12.3583C0.0886521 12.3476 0.0790288 12.3306 0.0776205 12.3129C-0.249571 8.68657 0.417251 5.01482 2.85147 1.25046C2.85734 1.2405 2.86626 1.23272 2.87658 1.2281C4.07433 0.658917 5.35751 0.24017 6.69866 0.00102451C6.72307 -0.00286403 6.74748 0.0088016 6.76016 0.0311607C6.92587 0.334953 7.11528 0.724537 7.24343 1.04291C8.65711 0.81932 10.0929 0.81932 11.5361 1.04291C11.6643 0.731342 11.8471 0.334953 12.0121 0.0311607C12.018 0.0200686 12.0271 0.0111822 12.0381 0.00577018C12.0492 0.000358163 12.0616 -0.00130277 12.0736 0.00102451C13.4155 0.240899 14.6986 0.659647 15.8955 1.2281C15.906 1.23272 15.9147 1.2405 15.9199 1.25119ZM7.96213 8.14607C7.97691 7.07404 7.22207 6.18697 6.27453 6.18697C5.33474 6.18697 4.58718 7.06627 4.58718 8.14607C4.58718 9.22562 5.34953 10.1049 6.27453 10.1049C7.21456 10.1049 7.96213 9.22562 7.96213 8.14607ZM14.2013 8.14607C14.2161 7.07404 13.4612 6.18697 12.5139 6.18697C11.5739 6.18697 10.8263 7.06627 10.8263 8.14607C10.8263 9.22562 11.5887 10.1049 12.5139 10.1049C13.4612 10.1049 14.2013 9.22562 14.2013 8.14607Z" fill="#0A0909"/>
</svg>
