<svg width="16" height="15" viewBox="0 0 16 15" fill="none" xmlns="http://www.w3.org/2000/svg">
<path d="M3.41881 14.8141V4.81847H0.190299V14.8141H3.41881ZM1.80523 3.45397C2.93084 3.45397 3.63161 2.68642 3.63161 1.7272C3.61054 0.746126 2.93084 0 1.82663 0C0.72167 0 0 0.746126 0 1.72711C0 2.68633 0.700516 3.45388 1.78407 3.45388L1.80523 3.45397ZM5.20583 14.8141H8.43409V9.23269C8.43409 8.93435 8.45516 8.63522 8.54045 8.42213C8.77373 7.825 9.30493 7.20689 10.197 7.20689C11.3649 7.20689 11.8324 8.12344 11.8324 9.4673V14.8141H15.0606V9.08292C15.0606 6.01281 13.4681 4.58413 11.344 4.58413C9.6026 4.58413 8.83778 5.58576 8.41285 6.26796H8.43434V4.81882H5.206C5.24814 5.75653 5.20583 14.8141 5.20583 14.8141Z" fill="#020101"/>
</svg>
