<svg width="19" height="16" viewBox="0 0 19 16" fill="none" xmlns="http://www.w3.org/2000/svg">
<path d="M18.2888 1.87203C17.6945 2.13521 17.0698 2.31847 16.43 2.41729C16.7291 2.36452 17.1693 1.81047 17.3444 1.58621C17.6106 1.24794 17.8134 0.861774 17.9427 0.447331C17.9427 0.41655 17.9726 0.372578 17.9427 0.350592C17.9276 0.342125 17.9107 0.337688 17.8935 0.337688C17.8764 0.337688 17.8595 0.342125 17.8444 0.350592C17.1497 0.737734 16.4103 1.03321 15.6438 1.23004C15.6171 1.23844 15.5887 1.23919 15.5616 1.23222C15.5345 1.22525 15.5097 1.21081 15.49 1.19046C15.4303 1.11735 15.3661 1.04831 15.2977 0.983793C14.9851 0.695532 14.6304 0.459603 14.2466 0.284633C13.7285 0.0659053 13.1689 -0.0288211 12.61 0.00760807C12.0677 0.0428509 11.5383 0.192528 11.0547 0.447331C10.5784 0.715968 10.1598 1.08092 9.82404 1.52025C9.47087 1.97244 9.2159 2.49722 9.07627 3.05928C8.96113 3.59392 8.94807 4.14649 9.03781 4.68626C9.03781 4.7786 9.03781 4.79179 8.9609 4.7786C5.91428 4.31689 3.4146 3.20439 1.37212 0.816698C1.28239 0.711165 1.23539 0.711165 1.16275 0.816698C0.273971 2.20622 0.70554 4.40484 1.81651 5.49095C1.96606 5.63606 2.11989 5.77677 2.28226 5.90869C1.77289 5.87147 1.27596 5.72942 0.82091 5.49095C0.735451 5.43379 0.688448 5.46457 0.684175 5.5701C0.672062 5.71641 0.672062 5.86351 0.684175 6.00982C0.773333 6.711 1.04186 7.37524 1.46228 7.9346C1.88271 8.49395 2.43995 8.92837 3.07703 9.19342C3.23234 9.26187 3.39416 9.31345 3.55988 9.34732C3.08832 9.44286 2.60469 9.45772 2.12844 9.39129C2.02588 9.36931 1.98743 9.42647 2.02588 9.52761C2.65401 11.2865 4.01708 11.823 5.01696 12.122C5.15369 12.144 5.29043 12.144 5.44425 12.1791C5.44425 12.1791 5.44425 12.1791 5.41862 12.2055C5.12378 12.7596 3.93163 13.1333 3.38469 13.3268C2.38638 13.6958 1.32201 13.8369 0.265425 13.7402C0.0987797 13.7138 0.0603231 13.7182 0.0175935 13.7402C-0.0251362 13.7621 0.0175934 13.8105 0.064596 13.8545C0.278244 13.9996 0.491892 14.1271 0.714086 14.2502C1.37556 14.6215 2.07487 14.9164 2.79929 15.1297C6.55095 16.1938 10.7726 15.4111 13.5885 12.5309C15.8019 10.2707 16.5796 7.1531 16.5796 4.03107C16.5796 3.91235 16.7206 3.84199 16.8018 3.78043C17.3618 3.33143 17.8554 2.80116 18.2674 2.20622C18.3388 2.11754 18.3753 2.00462 18.37 1.88962C18.37 1.82366 18.37 1.83685 18.2888 1.87203Z" fill="black"/>
</svg>
