<svg width="69" height="49" viewBox="0 0 69 49" fill="none" xmlns="http://www.w3.org/2000/svg">
<path d="M19.3224 35.0272C15.7438 35.0272 12.8424 32.023 12.8424 28.3177C12.8424 24.6124 15.7438 21.6083 19.3224 21.6083C22.2683 21.6083 24.7551 23.6435 25.5423 26.43L36.747 19.6619C33.6299 12.9469 26.999 8.31104 19.3224 8.31104C8.65085 8.31104 0 17.269 0 28.3177C0 39.3672 8.65085 48.3243 19.3224 48.3243C29.994 48.3243 38.6448 39.3672 38.6448 28.3177H25.8024C25.8024 32.023 22.9009 35.0272 19.3224 35.0272Z" fill="#181C1D"/>
<path d="M53.8226 12.6025C45.4402 12.6025 38.645 19.6391 38.645 28.3176H49.7931C49.7931 26.0129 51.5968 24.1454 53.8226 24.1454C56.0477 24.1454 57.8521 26.0129 57.8521 28.3176C57.8521 30.6222 56.0477 32.4898 53.8226 32.4898C51.8983 32.4898 50.2893 31.0938 49.8889 29.2256L40.135 35.1169C42.584 40.3914 47.792 44.0326 53.8226 44.0326C62.205 44.0326 69.0002 36.9968 69.0002 28.3176C69.0002 19.6391 62.205 12.6025 53.8226 12.6025Z" fill="#181C1D"/>
<path d="M37.7316 10.517C41.4933 10.517 45.2312 9.97126 48.8677 8.97483C50.4488 8.5416 52.1094 8.31071 53.8223 8.31071C54.7528 8.31071 55.6674 8.37867 56.5624 8.51059C56.1183 6.1302 54.8983 4.03552 53.1867 2.52016C51.4118 0.948586 49.1082 0 46.5898 0H20.7173C23.9814 6.26216 30.377 10.517 37.7316 10.517Z" fill="#181C1D"/>
</svg>
